<svg id="Layer_1" data-name="Layer 1" xmlns="http://www.w3.org/2000/svg" viewBox="0 0 817.85 459.1"><defs><style>.cls-1{fill:#20435e;}</style></defs><title>bike</title><path class="cls-1" d="M714.63,373.46a173.24,173.24,0,0,0-67.1,13.44L598.11,291h69.07a13.59,13.59,0,1,1,0,27.18H652.44a14,14,0,1,0,0,28.08h14.74a41.67,41.67,0,1,0,0-83.35H575.09a14,14,0,0,0-12.49,20.48l24.57,47.67H384.52L364.08,291h32.34a14,14,0,0,0,0-28.08h-92.1a14,14,0,0,0,0,28.08h28.24l27.29,53.49L327.77,394.2a173.26,173.26,0,0,0-82.4-20.74c-96.11,0-174.29,78.18-174.29,174.28S149.26,722,245.37,722c91.38,0,166.55-70.68,173.73-160.25h41.2l-16,52.09h-9.22a14,14,0,0,0,0,28.08h50.55a14,14,0,0,0,0-28.08h-12l18.48-60.12L609,373.4l13.61,26.4a174.33,174.33,0,0,0-82.25,147.94c0,96.1,78.19,174.29,174.29,174.29s174.29-78.19,174.29-174.29S810.74,373.46,714.63,373.46Zm-340,0L456.37,533.7H419.09a174.25,174.25,0,0,0-67.76-124.23Zm16.3,160.28H271.15L336,433.17A146.11,146.11,0,0,1,390.89,533.7ZM245.37,694c-80.62,0-146.21-65.58-146.21-146.21s65.59-146.21,146.21-146.21a145.27,145.27,0,0,1,67.09,16.37L233.57,540.13a14,14,0,0,0,11.8,21.66H390.89C383.8,635.84,321.25,694,245.37,694ZM480.75,519.69,398.85,359.17H584.74ZM714.63,694C634,694,568.42,628.37,568.42,547.74a146.16,146.16,0,0,1,67.1-122.85l66.63,129.29a14,14,0,1,0,25-12.86L660.46,412a145.48,145.48,0,0,1,54.17-10.45c80.62,0,146.21,65.59,146.21,146.21S795.25,694,714.63,694Zm0,0" transform="translate(-71.07 -262.94)"/></svg>